<?xml version="1.0" standalone="no"?><!DOCTYPE svg PUBLIC "-//W3C//DTD SVG 1.1//EN" "http://www.w3.org/Graphics/SVG/1.1/DTD/svg11.dtd"><svg class="icon" width="22px" height="22.00px" viewBox="0 0 1024 1024" version="1.1" xmlns="http://www.w3.org/2000/svg"><path fill="#76cef6" d="M5.1968 811.4176h90.83392v-64.9728h-25.86624v-206.09536l137.68192-159.3088h176.00512V197.888h470.58944v79.4624h64.96768V132.9152H318.87872v183.15264H178.15552L5.1968 516.18304v295.23456zM629.57056 296.38656c0 18.06336 15.52896 32.68096 34.69312 32.68096h320.50688c19.16928 0 34.69824-14.6176 34.69824-32.68096 0-18.05824-15.52896-32.68096-34.69824-32.68096h-320.44032c-19.16416 0.06656-34.75968 14.68416-34.75968 32.68096zM629.57056 444.45696c0 18.06336 15.52896 32.68096 34.69312 32.68096h320.50688c19.16928 0 34.69824-14.6176 34.69824-32.68096s-15.52896-32.68096-34.69824-32.68096h-320.44032c-19.16416 0-34.75968 14.6176-34.75968 32.68096zM564.59776 593.69984c0 18.05824 18.12992 32.67584 40.47872 32.67584h373.90848c22.3488 0 40.4736-14.61248 40.4736-32.67584 0-18.06336-18.1248-32.68608-40.4736-32.68608h-373.84704c-22.41536 0-40.54016 14.62272-40.54016 32.68608zM318.87872 811.4176h227.14368v-64.9728H383.85152V348.55936h-64.9728v462.85824zM204.7232 894.05952c66.85696 0 121.23648-54.37952 121.23648-121.16992 0-66.86208-54.38464-121.2416-121.23648-121.2416-66.85184 0-121.2416 54.37952-121.2416 121.2416 0.01024 66.7904 54.39488 121.16992 121.2416 121.16992z m0-181.91872c33.53088 0 60.7488 27.21792 60.7488 60.7488 0 33.4592-27.22304 60.68224-60.7488 60.68224-33.52064 0-60.7488-27.21792-60.7488-60.68224 0.07168-33.53088 27.2896-60.7488 60.7488-60.7488zM655.55968 894.05952c66.85696 0 121.2416-54.37952 121.2416-121.16992 0-66.86208-54.38464-121.2416-121.2416-121.2416s-121.2416 54.37952-121.2416 121.2416c0.00512 66.7904 54.4512 121.16992 121.2416 121.16992z m0-181.91872c33.4592 0 60.68736 27.21792 60.68736 60.7488 0 33.4592-27.22304 60.68224-60.68736 60.68224s-60.68736-27.21792-60.68736-60.68224c0.07168-33.53088 27.29472-60.7488 60.68736-60.7488zM937.99424 740.39808h-167.04512v64.9728h167.04512v-64.9728zM871.72096 755.7376a33.152 33.152 0 0 0 33.13664 33.13152 33.152 33.152 0 0 0 33.14176-33.13152v-40.28928a33.152 33.152 0 0 0-33.14176-33.13152 33.152 33.152 0 0 0-33.13664 33.13152v40.28928zM269.37344 491.88352v71.8592h-129.2288L197.8368 491.88352h71.53664z" /></svg>