<?xml version="1.0" standalone="no"?><!DOCTYPE svg PUBLIC "-//W3C//DTD SVG 1.1//EN" "http://www.w3.org/Graphics/SVG/1.1/DTD/svg11.dtd"><svg class="icon" width="21px" height="21.00px" viewBox="0 0 1024 1024" version="1.1" xmlns="http://www.w3.org/2000/svg"><path fill="#7cc35d" d="M510.7712 92.16A419.84 419.84 0 1 0 930.6112 512a420.2496 420.2496 0 0 0-419.84-419.84z m113.4592 202.1376c20.48 21.7088 49.5616 52.0192 63.488 69.8368l-29.4912 20.48a880.64 880.64 0 0 0-61.44-72.2944zM715.776 737.28a409.6 409.6 0 0 1-159.744-70.2464 466.944 466.944 0 0 1-151.552 70.2464 158.5152 158.5152 0 0 0-19.2512-31.5392 406.528 406.528 0 0 0 141.5168-61.44 364.544 364.544 0 0 1-73.3184-95.8464 406.3232 406.3232 0 0 1-143.36 149.9136 131.2768 131.2768 0 0 0-27.0336-28.0576c89.4976-54.4768 143.36-134.7584 175.9232-236.3392h-68.1984c-30.9248 0-47.7184 2.8672-52.0192 8.3968a363.52 363.52 0 0 0-12.288-34.4064c6.9632-2.048 12.288-8.8064 17.6128-20.48a396.0832 396.0832 0 0 0 32.9728-87.04l38.2976 7.3728a497.2544 497.2544 0 0 1-35.4304 89.9072h88.4736a775.5776 775.5776 0 0 0 20.48-112.64l40.96 5.9392c-5.3248 37.888-11.8784 73.3184-20.48 106.7008h212.7872v35.4304H500.3264a1105.92 1105.92 0 0 1-17.2032 52.0192h163.84l6.9632-2.048 24.576 12.288a333.6192 333.6192 0 0 1-95.4368 148.48 406.528 406.528 0 0 0 154.4192 61.44A127.7952 127.7952 0 0 0 715.776 737.28z"  /><path fill="#7cc35d" d="M476.3648 521.4208a303.5136 303.5136 0 0 0 78.6432 101.1712 292.2496 292.2496 0 0 0 75.1616-101.376z"  /></svg>