<?xml version="1.0" standalone="no"?><!DOCTYPE svg PUBLIC "-//W3C//DTD SVG 1.1//EN" "http://www.w3.org/Graphics/SVG/1.1/DTD/svg11.dtd"><svg class="icon" width="16px" height="16.00px" viewBox="0 0 1024 1024" version="1.1" xmlns="http://www.w3.org/2000/svg"><path fill="#0bcbfc" d="M512 0C229.228089 0 0 229.228089 0 512s229.228089 512 512 512 512-229.228089 512-511.943111-229.228089-512-512-512z m31.664356 315.710578c29.843911-51.120356 52.110222-87.745422 83.478755-137.978311 11.958044-17.6128 26.032356-10.934044 35.271111-4.551111 5.404444 2.707911 20.548267 14.222222 36.772978 26.350933l-101.296356 170.177422c-16.9984-9.762133-30.867911-18.454756-44.544-26.589867s-12.947911-21.742933-9.636977-27.409066zM285.582222 790.209422c-16.964267-9.682489-19.342222-21.538133-8.726755-38.354489 18.420622-29.058844 35.271111-59.164444 53.054577-88.587377 33.234489-54.931911 24.007111-65.513244 93.809778-18.807467 0.625778 0.420978 0.864711 1.4336 2.787556 4.790044l-98.736356 165.671823c-15.724089-9.227378-28.899556-17.066667-42.222933-24.712534z m463.075556-417.086578c-27.500089 144.622933-99.487289 265.477689-200.362667 370.096356-38.252089 39.674311-83.740444 69.984711-139.252622 80.019911-18.932622 3.413333-39.0144 0.546133-64.728178 0.546133 35.441778-59.653689 65.991111-111.502222 97.314133-163.032177 2.423467-3.9936 9.545956-5.108622 14.427023-7.657245 13.2096-6.906311 31.505067-10.478933 38.684444-21.378844 40.391111-60.893867 78.848-123.141689 116.053333-186.026667 6.826667-11.548444 11.605333-31.914667 5.996089-41.710933-12.3904-21.617778-2.275556-35.271111 7.566223-51.2s19.501511-32.574578 29.229511-48.924445l55.625955-93.149866c8.305778 11.377778 13.9264 19.012267 18.966756 26.532977 10.808889 16.133689 23.392711 39.7312 25.088 67.208534 1.285689 12.162844-1.297067 50.392178-4.755911 68.664889z"  /></svg>